<?xml version="1.0" standalone="no"?>
<!DOCTYPE svg PUBLIC "-//W3C//DTD SVG 20010904//EN"
 "http://www.w3.org/TR/2001/REC-SVG-20010904/DTD/svg10.dtd">
<svg version="1.0" xmlns="http://www.w3.org/2000/svg"
 width="1203.000000pt" height="372.000000pt" viewBox="0 0 1203.000000 372.000000"
 preserveAspectRatio="xMidYMid meet">
<metadata>
Created by potrace 1.16, written by Peter Selinger 2001-2019
</metadata>
<g transform="translate(0.000000,372.000000) scale(0.100000,-0.100000)"
fill="#000000" stroke="none">
<path d="M956 3699 c-14 -11 -56 -60 -93 -107 -185 -239 -278 -333 -489 -494
-67 -51 -128 -103 -134 -115 -23 -41 -5 -68 107 -154 242 -186 313 -256 497
-491 109 -141 134 -160 175 -139 11 6 62 66 113 134 120 158 319 358 483 483
71 55 131 108 133 118 8 41 -11 66 -110 142 -241 183 -323 264 -502 494 -85
109 -124 148 -147 150 -4 0 -18 -9 -33 -21z m131 -241 c110 -87 292 -267 378
-373 102 -127 103 -128 69 -177 -132 -190 -476 -518 -544 -518 -80 0 -560 481
-560 561 0 55 234 316 423 472 96 79 119 95 144 96 6 1 47 -27 90 -61z"/>
<path d="M914 3447 c-117 -86 -276 -243 -397 -391 -77 -94 -77 -115 1 -210 84
-104 215 -239 312 -320 159 -135 158 -135 284 -32 142 116 362 351 405 433 16
32 3 58 -85 164 -118 142 -336 349 -411 388 -34 18 -47 14 -109 -32z m111
-214 c17 -49 31 -94 33 -100 2 -8 -6 -13 -21 -13 l-25 0 1 -117 2 -118 -25 0
-25 0 1 118 c2 117 2 117 -22 117 -13 0 -24 3 -24 8 0 14 65 192 70 192 3 0
19 -39 35 -87z m-167 -191 l24 -18 -40 -12 c-86 -26 -96 -83 -19 -121 125 -62
413 -24 425 56 4 28 -42 63 -83 63 -24 0 -34 5 -38 20 -10 40 69 15 124 -39
38 -39 40 -43 27 -64 -62 -96 -405 -118 -552 -34 -79 45 -75 93 13 139 62 32
87 34 119 10z m172 -304 c0 -40 3 -89 6 -109 6 -33 4 -37 -21 -43 -58 -15 -65
-4 -65 99 0 117 3 125 46 125 l34 0 0 -72z"/>
<path d="M1960 2940 l0 -580 160 0 160 0 0 580 0 580 -160 0 -160 0 0 -580z"/>
<path d="M2440 2940 l0 -580 440 0 440 0 0 115 0 115 -275 0 -275 0 0 120 0
120 255 0 255 0 0 115 0 115 -255 0 -255 0 0 110 0 110 275 0 275 0 0 120 0
120 -440 0 -440 0 0 -580z"/>
<path d="M3490 2940 l0 -580 440 0 440 0 0 115 0 115 -275 0 -275 0 0 120 0
120 255 0 255 0 0 115 0 115 -255 0 -255 0 0 110 0 110 275 0 275 0 0 120 0
120 -440 0 -440 0 0 -580z"/>
<path d="M4540 2940 l0 -580 440 0 440 0 0 115 0 115 -275 0 -275 0 0 120 0
120 255 0 255 0 0 115 0 115 -255 0 -255 0 0 110 0 110 275 0 275 0 0 120 0
120 -440 0 -440 0 0 -580z"/>
<path d="M11465 2180 l-520 -520 -5472 0 -5473 0 0 -35 0 -35 5488 0 5487 0
530 530 530 530 -25 25 -25 25 -520 -520z"/>
<path d="M2910 1326 l-55 -11 3 -77 4 -76 -54 -7 c-69 -9 -113 -37 -141 -89
-30 -56 -32 -211 -3 -269 31 -63 103 -85 166 -52 27 14 30 14 30 -1 0 -13 6
-15 31 -10 17 3 46 6 63 6 l31 0 0 300 c0 194 -4 300 -10 299 -5 -1 -35 -6
-65 -13z m-51 -348 c-2 -119 -9 -143 -39 -143 -33 0 -52 51 -44 120 9 74 28
105 67 105 15 0 17 -10 16 -82z"/>
<path d="M3653 1327 l-53 -10 0 -77 0 -76 -59 -11 c-33 -7 -71 -19 -85 -28
-58 -38 -93 -186 -66 -284 17 -62 67 -111 114 -111 21 0 50 7 66 15 27 14 30
14 30 -1 0 -14 7 -15 38 -10 20 3 48 6 62 6 l25 0 2 300 c1 223 -2 300 -10
299 -7 -1 -36 -6 -64 -12z m-53 -370 c0 -106 -7 -127 -42 -127 -27 0 -38 32
-38 108 0 76 23 122 61 122 18 0 19 -8 19 -103z"/>
<path d="M6481 1326 l-54 -11 2 -290 c1 -159 4 -291 5 -292 2 -2 30 0 64 3
l62 7 0 298 c0 233 -3 299 -12 298 -7 -1 -37 -6 -67 -13z"/>
<path d="M7070 1326 l-55 -11 3 -77 4 -76 -54 -7 c-69 -9 -108 -34 -138 -87
-21 -37 -25 -56 -25 -138 0 -73 4 -104 19 -133 31 -63 103 -85 166 -52 27 14
30 14 30 -1 0 -13 6 -15 31 -10 17 3 46 6 63 6 l31 0 0 300 c0 194 -4 300 -10
299 -5 -1 -35 -6 -65 -13z m-50 -364 c0 -105 -11 -137 -46 -130 -27 5 -45 62
-38 123 9 74 28 105 67 105 15 0 17 -11 17 -98z"/>
<path d="M172 1068 c3 -245 8 -265 71 -312 43 -32 178 -36 234 -7 72 36 80 69
85 324 l5 217 -64 0 -63 0 0 -201 c0 -195 -5 -232 -34 -251 -21 -14 -53 -8
-72 13 -17 19 -19 41 -22 230 l-3 209 -70 0 -70 0 3 -222z"/>
<path d="M3980 1009 l0 -282 38 7 c20 3 48 6 60 6 l24 0 -7 163 -6 162 92
-169 91 -168 46 6 c24 3 53 6 63 6 18 0 19 14 19 275 l0 275 -61 0 -62 0 7
-157 6 -158 -35 60 c-19 33 -58 104 -87 157 l-53 98 -67 0 -68 0 0 -281z"/>
<path d="M7750 1016 c0 -164 4 -277 10 -281 5 -3 38 -3 73 1 l64 6 -1 274 -1
274 -72 0 -73 0 0 -274z"/>
<path d="M683 1156 l-63 -10 0 -209 0 -209 31 6 c17 3 48 6 69 6 l37 0 -5 149
c-5 147 -4 149 18 161 42 22 50 -5 50 -173 l0 -150 38 7 c20 3 50 6 65 6 l29
0 -4 179 c-3 164 -5 182 -24 208 -28 38 -103 45 -145 14 l-28 -21 -3 23 c-3
21 -5 22 -65 13z"/>
<path d="M1070 1155 c-40 -7 -65 -15 -64 -23 1 -7 2 -100 3 -207 l1 -196 68 7
c37 4 67 7 68 8 1 0 -2 95 -5 211 l-6 210 -65 -10z"/>
<path d="M2525 1155 l-60 -11 -3 -207 -2 -208 67 7 c38 4 69 7 69 8 1 0 -1 95
-5 211 l-6 210 -60 -10z"/>
<path d="M5165 1155 l-60 -11 0 -203 c0 -111 2 -204 5 -206 3 -2 34 -1 68 2
l62 6 0 208 c0 114 -3 209 -7 212 -5 2 -35 -2 -68 -8z"/>
<path d="M5743 1156 l-61 -9 3 -206 c3 -182 5 -206 19 -205 9 0 39 1 67 2 l52
2 -5 145 c-6 139 -5 146 15 160 39 28 46 6 49 -159 l3 -151 65 3 c36 2 65 5
66 5 1 1 -2 84 -5 184 -6 174 -7 182 -30 207 -29 31 -85 35 -131 11 -26 -14
-30 -14 -30 -1 0 21 -8 23 -77 12z"/>
<path d="M8015 1156 l-59 -11 3 -205 c1 -113 4 -206 5 -207 0 -1 29 1 64 4
l62 6 0 148 c0 133 2 149 18 158 40 22 47 1 50 -165 l4 -156 36 6 c21 3 49 6
65 6 l27 0 0 139 c0 164 -12 239 -41 264 -26 21 -98 23 -125 2 -26 -20 -34
-19 -34 5 0 11 -3 19 -7 19 -5 -1 -35 -7 -68 -13z"/>
<path d="M9113 1156 l-61 -9 3 -206 c3 -182 5 -206 19 -205 9 0 39 1 68 2 l51
2 -6 145 c-5 139 -5 145 15 160 40 28 47 6 50 -159 l3 -151 65 3 c36 2 65 5
66 5 1 1 -2 84 -5 184 -6 174 -7 182 -30 207 -29 31 -85 35 -131 11 -26 -14
-30 -14 -30 -1 0 21 -8 23 -77 12z"/>
<path d="M9505 1155 l-60 -11 -3 -208 -2 -209 37 7 c21 3 52 6 70 6 l32 0 -1
210 c-1 116 -4 212 -7 214 -3 1 -33 -3 -66 -9z"/>
<path d="M10325 1155 l-60 -11 0 -203 c0 -111 2 -204 5 -206 3 -2 34 -1 68 2
l62 6 0 208 c0 114 -3 209 -7 212 -5 2 -35 -2 -68 -8z"/>
<path d="M1198 1153 c-16 -2 -28 -8 -28 -13 0 -12 108 -401 113 -406 2 -2 31
-1 64 2 l59 6 53 187 c28 102 54 196 58 209 5 21 2 22 -50 22 -45 0 -57 -4
-60 -17 -3 -10 -16 -70 -28 -133 l-23 -115 -17 75 c-9 41 -22 101 -29 133
l-11 57 -37 -1 c-20 -1 -49 -4 -64 -6z"/>
<path d="M1624 1150 c-29 -12 -70 -63 -84 -106 -18 -54 -9 -192 16 -234 32
-55 66 -74 143 -78 38 -2 85 1 105 8 35 11 36 13 36 61 0 27 -2 49 -4 49 -2 0
-20 -7 -41 -16 -61 -25 -123 3 -138 64 -5 22 -4 22 94 22 l99 0 0 65 c0 78
-26 137 -70 160 -31 16 -121 19 -156 5z"/>
<path d="M1955 1153 c-11 -2 -29 -6 -41 -8 -20 -4 -20 -9 -18 -205 1 -111 4
-203 7 -206 3 -3 32 -2 66 2 l61 7 0 121 c0 146 11 172 66 161 31 -5 34 -4 34
18 0 13 3 45 6 71 l7 46 -34 0 c-39 0 -48 -5 -73 -40 l-18 -25 7 33 c6 30 5
32 -22 31 -15 -1 -37 -3 -48 -6z"/>
<path d="M2213 1144 c-56 -28 -80 -113 -49 -173 8 -15 40 -44 70 -64 62 -41
72 -70 33 -88 -18 -8 -33 -7 -62 5 -53 22 -55 21 -55 -29 0 -40 3 -47 26 -55
39 -15 141 -12 175 5 59 31 86 116 57 180 -6 14 -36 41 -65 61 -60 40 -71 57
-53 79 16 19 43 19 79 0 l28 -14 7 46 c3 25 3 49 0 52 -3 3 -40 7 -82 9 -56 2
-86 -2 -109 -14z"/>
<path d="M3083 1145 c-30 -13 -33 -18 -33 -60 0 -49 3 -51 40 -30 33 19 94 19
110 0 17 -20 8 -27 -62 -48 -81 -25 -118 -69 -118 -142 0 -30 5 -66 12 -80 21
-47 100 -70 149 -44 14 7 24 7 33 0 7 -6 36 -8 69 -4 l57 6 0 151 c0 179 -9
220 -53 246 -39 24 -155 27 -204 5z"/>
<path d="M4503 1145 c-30 -13 -33 -18 -33 -60 0 -49 3 -51 40 -30 33 19 94 19
110 0 17 -20 6 -32 -37 -40 -51 -9 -86 -29 -117 -65 -21 -26 -26 -42 -26 -86
0 -61 11 -90 44 -116 24 -20 87 -23 117 -7 14 7 24 7 33 0 7 -6 36 -8 68 -4
l57 6 -3 171 c-2 185 -7 206 -56 231 -37 19 -154 19 -197 0z"/>
<path d="M4890 1141 c-23 -12 -44 -36 -60 -67 -21 -41 -25 -62 -25 -139 0 -73
4 -97 21 -125 33 -56 77 -80 148 -80 34 0 66 4 73 8 6 4 14 28 18 54 l7 47
-48 -5 c-72 -9 -89 14 -89 113 0 70 2 76 29 99 16 14 34 23 40 21 53 -20 53
-20 59 30 3 31 1 51 -6 55 -24 15 -132 8 -167 -11z"/>
<path d="M5370 1141 c-56 -30 -83 -93 -83 -196 0 -102 27 -166 83 -197 48 -26
157 -22 197 8 54 41 68 79 68 189 0 114 -15 152 -75 192 -43 30 -139 32 -190
4z m131 -150 c3 -131 -7 -171 -40 -171 -51 0 -57 221 -8 252 21 14 47 -31 48
-81z"/>
<path d="M6119 1149 c-22 -8 -28 -18 -34 -55 -3 -25 -5 -48 -2 -50 2 -2 20 3
40 11 61 25 117 18 117 -16 0 -12 -7 -19 -18 -19 -38 0 -110 -32 -138 -61 -26
-28 -29 -37 -29 -100 0 -67 2 -72 33 -100 35 -31 85 -39 123 -18 14 7 24 7 33
0 7 -6 36 -8 69 -4 l57 6 0 161 c0 228 -17 256 -155 255 -38 0 -82 -5 -96 -10z"/>
<path d="M7284 1150 c-29 -12 -70 -63 -84 -106 -18 -54 -9 -192 16 -234 32
-55 66 -74 143 -78 38 -2 85 1 105 8 35 11 36 13 36 61 0 27 -2 49 -4 49 -2 0
-21 -7 -42 -16 -47 -20 -105 -6 -121 28 -29 60 -31 58 77 58 l100 0 0 65 c0
78 -26 137 -70 160 -31 16 -121 19 -156 5z"/>
<path d="M8450 1151 c-68 -14 -100 -45 -114 -109 -10 -44 1 -87 32 -123 l25
-31 -24 -45 c-22 -42 -23 -46 -7 -56 15 -10 14 -14 -13 -44 -74 -85 -6 -173
134 -173 117 0 179 47 179 136 0 60 -32 94 -116 125 -77 28 -90 39 -45 39 19
0 55 10 79 23 57 28 79 78 63 138 -9 35 -8 39 8 39 16 0 19 8 19 45 l0 45 -92
-1 c-51 -1 -109 -4 -128 -8z"/>
<path d="M8785 1150 c-29 -12 -62 -50 -80 -92 -24 -59 -20 -183 8 -238 34 -67
65 -84 155 -88 104 -4 126 8 130 72 2 36 0 47 -10 43 -63 -26 -85 -29 -121
-14 -27 12 -38 24 -45 49 l-8 33 98 3 98 3 0 59 c0 121 -50 181 -151 179 -30
0 -63 -4 -74 -9z"/>
<path d="M9703 1140 c-53 -32 -77 -91 -78 -190 0 -154 56 -220 188 -220 98 0
114 9 119 67 3 26 3 50 2 52 -2 2 -22 -4 -45 -13 -68 -27 -119 -6 -134 57 l-7
27 102 0 103 0 -5 68 c-9 120 -56 172 -158 172 -37 0 -66 -6 -87 -20z"/>
<path d="M10027 1150 c-20 -4 -38 -9 -40 -11 -1 -2 -1 -96 1 -208 l3 -204 46
7 c25 3 55 6 67 6 20 0 21 4 21 128 0 148 7 167 62 159 35 -6 33 -11 47 96 l5
37 -39 0 c-30 0 -43 -6 -59 -26 l-21 -27 0 27 c0 29 -15 31 -93 16z"/>
<path d="M10503 1149 c-32 -9 -33 -12 -33 -59 0 -54 3 -56 40 -35 33 19 94 19
110 0 17 -20 6 -32 -37 -40 -108 -19 -166 -98 -144 -196 13 -59 49 -89 104
-89 24 0 53 7 65 16 20 14 22 14 22 -2 0 -14 7 -16 38 -10 20 3 49 6 63 6 l25
0 -3 168 c-3 92 -9 180 -15 195 -6 15 -23 34 -39 42 -32 17 -145 19 -196 4z"/>
<path d="M2743 603 l-33 -4 0 -90 0 -89 -32 0 c-98 0 -168 -58 -188 -156 -22
-106 4 -208 62 -244 39 -24 88 -26 128 -5 17 9 30 11 30 5 0 -5 20 -10 45 -10
l45 0 0 300 c0 234 -3 300 -12 298 -7 0 -28 -3 -45 -5z m-33 -378 c0 -121 -1
-125 -24 -141 -74 -48 -138 57 -106 175 15 58 49 91 95 91 l35 0 0 -125z"/>
<path d="M5603 603 l-33 -4 0 -295 0 -294 45 0 45 0 0 154 c0 152 0 154 25
170 31 20 59 20 79 0 13 -13 16 -43 16 -170 l0 -154 45 0 45 0 0 153 c0 163
-8 213 -40 242 -26 23 -94 24 -137 1 l-33 -17 0 111 c0 82 -3 110 -12 108 -7
0 -28 -3 -45 -5z"/>
<path d="M501 562 l-134 -3 7 -61 c3 -33 6 -157 6 -274 l0 -214 140 0 140 0 0
35 0 35 -95 0 -95 0 0 90 0 90 85 0 85 0 0 35 0 35 -85 0 -85 0 0 80 0 80 90
0 90 0 0 30 c0 17 0 33 1 37 1 9 10 9 -150 5z"/>
<path d="M858 563 l-128 -4 0 -274 0 -275 139 0 c135 0 139 1 145 22 12 47 11
48 -94 48 l-100 0 0 90 0 89 88 3 87 3 3 33 3 32 -90 0 -91 0 0 80 0 80 95 0
95 0 0 40 c0 26 -4 39 -12 38 -7 -1 -70 -4 -140 -5z"/>
<path d="M1211 563 l-134 -4 7 -91 c3 -50 6 -174 6 -275 l0 -183 140 0 140 0
0 35 0 35 -95 0 -95 0 0 90 0 90 85 0 85 0 0 35 0 35 -85 0 -85 0 0 80 0 80
90 0 90 0 0 40 c0 22 -3 39 -7 38 -5 -1 -68 -4 -142 -5z"/>
<path d="M1664 560 c-33 -13 -72 -66 -79 -109 -13 -77 16 -122 132 -204 75
-54 87 -102 40 -155 -27 -30 -94 -30 -131 -1 -15 12 -29 20 -31 18 -2 -2 -6
-21 -10 -41 -6 -34 -5 -38 24 -52 41 -22 146 -21 191 2 49 24 75 74 75 144 0
66 -17 95 -86 146 -102 75 -112 87 -112 120 0 65 65 92 134 56 17 -8 32 -14
34 -12 2 2 5 19 7 38 2 28 -1 37 -22 47 -28 14 -134 16 -166 3z"/>
<path d="M4003 563 l-53 -4 3 -274 2 -275 105 0 c121 0 161 14 197 69 17 24
23 48 23 85 0 61 -15 94 -55 120 l-30 20 27 26 c45 46 49 140 8 193 -11 14
-38 29 -64 36 -44 11 -57 11 -163 4z m144 -85 c16 -15 23 -33 23 -60 0 -54
-35 -88 -90 -88 l-40 0 0 85 0 85 42 0 c29 0 49 -7 65 -22z m13 -243 c28 -25
35 -76 16 -113 -16 -30 -58 -52 -102 -52 -22 0 -24 4 -24 49 0 26 -3 70 -7 96
l-6 48 52 -5 c29 -3 60 -13 71 -23z"/>
<path d="M180 285 l0 -275 50 0 50 0 0 275 0 275 -50 0 -50 0 0 -275z"/>
<path d="M1978 527 c-37 -9 -38 -10 -38 -57 0 -43 -3 -49 -22 -52 -18 -2 -24
-11 -26 -35 -3 -30 -1 -33 22 -33 l26 0 0 -150 c0 -147 1 -152 25 -175 18 -19
35 -25 70 -25 47 0 53 5 57 50 3 22 0 25 -24 22 -39 -5 -48 25 -48 164 l0 114
35 0 c33 0 35 2 35 35 0 34 -1 35 -36 35 l-37 0 7 54 c3 30 3 57 -1 59 -5 2
-25 0 -45 -6z"/>
<path d="M3618 527 c-37 -10 -38 -12 -38 -59 0 -41 -3 -48 -20 -48 -16 0 -20
-7 -20 -35 0 -28 4 -35 19 -35 18 0 20 -10 23 -151 l3 -151 28 -24 c18 -15 41
-24 62 -24 53 0 65 8 65 46 0 32 -2 34 -26 28 -17 -4 -29 -2 -35 7 -5 8 -9 71
-9 142 l0 127 30 0 c17 0 30 5 30 13 0 6 3 22 6 35 6 20 3 22 -30 22 l-36 0 0
60 c0 33 -3 59 -7 59 -5 -1 -25 -6 -45 -12z"/>
<path d="M2964 419 c-80 -23 -127 -136 -106 -258 18 -108 75 -161 173 -161 86
0 109 12 109 56 0 33 -2 36 -22 29 -13 -4 -42 -10 -64 -12 -35 -4 -46 0 -73
24 -21 18 -34 41 -38 66 l-6 37 107 0 c124 0 123 0 108 90 -13 72 -35 104 -85
125 -42 17 -57 17 -103 4z"/>
<path d="M3241 418 c-42 -9 -43 -11 -37 -40 3 -17 6 -106 6 -199 l0 -169 46 0
45 0 -7 148 -7 148 28 22 c35 28 70 28 89 0 13 -18 16 -53 16 -170 l0 -148 46
0 47 0 -7 172 c-8 193 -16 220 -70 238 -40 13 -97 1 -126 -25 -17 -16 -18 -16
-13 3 7 27 -4 30 -56 20z"/>
<path d="M4371 417 l-44 -9 7 -51 c3 -29 6 -118 6 -199 l0 -148 45 0 45 0 -6
113 c-9 166 15 229 82 213 19 -5 25 -2 30 18 18 74 -32 102 -86 48 l-29 -29
-3 26 c-3 26 -4 27 -47 18z"/>
<path d="M4650 421 c-52 -11 -60 -18 -60 -57 0 -39 -1 -39 36 -19 57 30 124
13 124 -30 0 -19 -7 -26 -27 -31 -57 -12 -111 -35 -131 -57 -104 -111 6 -280
138 -212 17 9 30 11 30 5 0 -5 18 -10 40 -10 l40 0 0 164 c0 176 -6 206 -43
230 -28 19 -99 27 -147 17z"/>
<path d="M4975 425 c-5 -2 -22 -6 -37 -9 l-28 -6 0 -200 0 -200 45 0 45 0 0
154 c0 149 1 155 22 170 31 22 75 20 88 -3 5 -11 10 -86 10 -170 l0 -151 46 0
46 0 -4 167 c-4 194 -11 219 -71 242 -35 13 -43 13 -88 -6 -38 -16 -49 -18
-49 -8 0 16 -10 24 -25 20z"/>
<path d="M5385 418 c-76 -27 -114 -96 -115 -208 0 -86 25 -149 72 -184 32 -23
121 -33 161 -17 23 9 27 16 27 47 0 31 -3 35 -17 29 -94 -41 -155 9 -154 126
0 68 15 104 54 133 24 18 31 19 63 7 41 -15 42 -15 50 26 6 30 4 32 -32 42
-47 13 -69 13 -109 -1z"/>
<path d="M2130 250 c0 -187 8 -222 56 -240 37 -14 85 -12 119 6 19 10 31 11
33 5 2 -6 23 -11 46 -11 l43 0 -1 205 -1 205 -42 0 -43 0 0 -160 0 -159 -31
-17 c-45 -23 -76 -12 -88 31 -5 19 -7 94 -4 170 l6 135 -47 0 -46 0 0 -170z"/>
</g>
</svg>
